<svg width="48" height="48" viewBox="0 0 48 48" fill="none" xmlns="http://www.w3.org/2000/svg">
<g clip-path="url(#clip0_70_14)">
<path d="M0 3.53457C0 1.63669 1.58887 0.0961914 3.5475 0.0961914H44.4525C46.4119 0.0961914 48 1.63669 48 3.53457V44.6584C48 46.5568 46.4119 48.0962 44.4525 48.0962H3.5475C1.58906 48.0962 0 46.557 0 44.6589V3.534V3.53457Z" fill="#E76D8A"/>
<path d="M3.02362 33.1181L16.9618 48H30.8999L43.8425 27.1653L37.3712 8.31494L8.49933 9.30707L3.02362 33.1181Z" fill="#F8E9E5"/>
<path fill-rule="evenodd" clip-rule="evenodd" d="M24 1.37793C10.74 1.37793 0 12.1179 0 25.3779C0 35.9979 6.87 44.9679 16.41 48.1479C17.61 48.3579 18.06 47.6379 18.06 47.0079C18.06 46.4379 18.03 44.5479 18.03 42.5379C12 43.6479 10.44 41.0679 9.96 39.7179C9.69 39.0279 8.52 36.8979 7.5 36.3279C6.66 35.8779 5.46 34.7679 7.47 34.7379C9.36 34.7079 10.71 36.4779 11.16 37.1979C13.32 40.8279 16.77 39.8079 18.15 39.1779C18.36 37.6179 18.99 36.5679 19.68 35.9679C14.34 35.3679 8.76 33.2979 8.76 24.1179C8.76 21.5079 9.69 19.3479 11.22 17.6679C10.98 17.0679 10.14 14.6079 11.46 11.3079C11.46 11.3079 13.47 10.6779 18.06 13.7679C19.98 13.2279 22.02 12.9579 24.06 12.9579C26.1 12.9579 28.14 13.2279 30.06 13.7679C34.65 10.6479 36.66 11.3079 36.66 11.3079C37.98 14.6079 37.14 17.0679 36.9 17.6679C38.43 19.3479 39.36 21.4779 39.36 24.1179C39.36 33.3279 33.75 35.3679 28.41 35.9679C29.28 36.7179 30.03 38.1579 30.03 40.4079C30.03 43.6179 30 46.1979 30 47.0079C30 47.6379 30.45 48.3879 31.65 48.1479C41.13 44.9679 48 35.9679 48 25.3779C48 12.1179 37.26 1.37793 24 1.37793Z" fill="#E76D8A"/>
</g>
<defs>
<clipPath id="clip0_70_14">
<rect width="48" height="48" fill="white"/>
</clipPath>
</defs>
</svg>
