<svg width="48" height="48" viewBox="0 0 48 48" fill="none" xmlns="http://www.w3.org/2000/svg">
<g clip-path="url(#clip0_69_4)">
<path d="M0 3.53457C0 1.63669 1.58888 0.0961914 3.5475 0.0961914H44.4525C46.4119 0.0961914 48 1.63669 48 3.53457V44.6584C48 46.5568 46.4119 48.0962 44.4525 48.0962H3.5475C1.58906 48.0962 0 46.557 0 44.6589V3.534V3.53457Z" fill="#E76D8A"/>
<path d="M14.5868 40.1053V18.582H7.404V40.1053H14.5875H14.5868ZM10.9969 15.6439C13.5011 15.6439 15.0602 13.9911 15.0602 11.9257C15.0133 9.81315 13.5011 8.20654 11.0445 8.20654C8.58619 8.20654 6.98063 9.81315 6.98063 11.9255C6.98063 13.9909 8.53912 15.6437 10.9498 15.6437H10.9963L10.9969 15.6439ZM18.5625 40.1053H25.7447V28.087C25.7447 27.4446 25.7916 26.8005 25.9813 26.3416C26.5003 25.0559 27.6821 23.7249 29.6668 23.7249C32.2652 23.7249 33.3053 25.6985 33.3053 28.5922V40.1053H40.4873V27.7645C40.4873 21.1537 36.9443 18.0774 32.2187 18.0774C28.3444 18.0774 26.6428 20.2342 25.6974 21.7032H25.7453V18.5827H18.5629C18.6566 20.6019 18.5623 40.1061 18.5623 40.1061L18.5625 40.1053Z" fill="#F8E9E5"/>
</g>
<defs>
<clipPath id="clip0_69_4">
<rect width="48" height="48" fill="white"/>
</clipPath>
</defs>
</svg>
