<svg width="69" height="67" viewBox="0 0 69 67" fill="none" xmlns="http://www.w3.org/2000/svg">
<g clip-path="url(#clip0_34_3)">
<path d="M12.2188 0.00689697H56.7812C63.5375 0.00689697 69 5.44595 69 12.1732V54.8268C69 61.5541 63.5375 66.9932 56.7812 66.9932H12.2188C5.4625 66.9932 0 61.5541 0 54.8268V12.1732C0 5.44595 5.4625 0.00689697 12.2188 0.00689697Z" fill="#6F4367"/>
<path d="M48.8832 41.8173V38.8679H51.8245V41.8173H53.2952V38.8679H56.2365V37.3933H53.2952V34.4441H56.2365V32.9694H53.2952V30.02H51.8245V32.9694H48.8832V30.02H47.4126V32.9694H44.4715V34.4441H47.4126V37.3933H44.4715V38.8679H47.4126V41.8173H48.8832ZM51.8245 37.3935H48.8832V34.4441H51.8245V37.3935Z" fill="#E76D8A"/>
<path d="M40.7588 30.9831C39.1652 28.1814 36.1369 26.2879 32.6615 26.2879C29.2073 26.2879 26.1962 28.1576 24.5944 30.9297C23.7898 32.3207 23.3672 33.8966 23.3689 35.5001C23.3689 40.5877 27.5295 44.7121 32.6615 44.7121C36.0934 44.7121 39.0887 42.8657 40.6984 40.1219L48.8206 44.7586C45.5922 50.2832 39.5649 54 32.6615 54C22.3548 54 14 45.7172 14 35.5001C14 32.1482 14.8995 29.0049 16.4716 26.2935C19.6918 20.7397 25.7362 17 32.6615 17C39.5995 17 45.6533 20.7547 48.8689 26.3249L40.7588 30.9831Z" fill="#E76D8A"/>
</g>
<defs>
<clipPath id="clip0_34_3">
<rect width="69" height="66.9863" fill="white" transform="matrix(1 0 0 -1 0 66.9932)"/>
</clipPath>
</defs>
</svg>
