<svg width="69" height="67" viewBox="0 0 69 67" fill="none" xmlns="http://www.w3.org/2000/svg">
<g clip-path="url(#clip0_38_2)">
<path d="M12.2188 0.00695801H56.7812C63.5375 0.00695801 69 5.44601 69 12.1733V54.8269C69 61.5542 63.5375 66.9932 56.7812 66.9932H12.2188C5.4625 66.9932 0 61.5542 0 54.8269V12.1733C0 5.44601 5.4625 0.00695801 12.2188 0.00695801Z" fill="#6F4367"/>
<path d="M15.525 46.9831V17.5263C15.525 17.3259 15.6112 17.2114 15.8125 17.2114C16.3012 17.2114 16.7612 17.2114 17.4225 17.1828C18.1125 17.1542 18.8312 17.1542 19.6075 17.1256C20.3837 17.0969 21.2175 17.0969 22.1087 17.0683C23 17.0397 23.8625 17.0397 24.725 17.0397C27.0825 17.0397 29.0375 17.3259 30.6475 17.9271C32.085 18.4137 33.4075 19.2153 34.5 20.2745C35.42 21.1905 36.1387 22.307 36.5987 23.5379C37.03 24.7402 37.26 25.9712 37.26 27.2594C37.26 29.7213 36.685 31.7537 35.535 33.3568C34.385 34.9599 32.775 36.1622 30.9062 36.8493C28.9512 37.565 26.795 37.8226 24.4375 37.8226C23.7475 37.8226 23.2875 37.8226 23 37.794C22.7125 37.7653 22.31 37.7653 21.7637 37.7653V46.9545C21.7925 47.1549 21.6487 47.3266 21.4475 47.3552H15.87C15.64 47.3552 15.525 47.2407 15.525 46.9831ZM21.7925 22.7364V32.3549C22.195 32.3835 22.5687 32.4122 22.9137 32.4122H24.4375C25.5587 32.4122 26.68 32.2404 27.7437 31.8969C28.6637 31.6392 29.4687 31.0953 30.1012 30.3797C30.705 29.664 30.9925 28.6907 30.9925 27.4311C31.0212 26.5437 30.7912 25.6563 30.3312 24.8834C29.8425 24.1391 29.1525 23.5665 28.3187 23.2516C27.255 22.8222 26.105 22.6505 24.9262 22.6791C24.1787 22.6791 23.5175 22.6791 22.9712 22.7077C22.3962 22.6791 21.9937 22.7077 21.7925 22.7364ZM55.2 30.6087C54.3375 30.1507 53.4175 29.8358 52.44 29.6354C51.3762 29.4064 50.3125 29.2632 49.22 29.2632C48.645 29.2346 48.0412 29.3205 47.495 29.4636C47.1212 29.5495 46.805 29.7499 46.6037 30.0362C46.46 30.2652 46.3737 30.5514 46.3737 30.8091C46.3737 31.0667 46.4887 31.3243 46.6612 31.5534C46.92 31.8683 47.265 32.1259 47.6387 32.3263C48.3 32.6698 48.99 32.9847 49.68 33.271C51.2325 33.7862 52.7275 34.5019 54.1075 35.3607C55.0562 35.9619 55.8325 36.7634 56.3787 37.7367C56.8387 38.6528 57.0687 39.6547 57.04 40.6853C57.0687 42.0307 56.6662 43.3762 55.9187 44.4926C55.1137 45.6377 53.9925 46.5251 52.6987 47.0404C51.29 47.6415 49.565 47.9564 47.495 47.9564C46.1725 47.9564 44.8787 47.8419 43.585 47.5843C42.5787 47.4125 41.5725 47.0976 40.6525 46.6682C40.4512 46.5537 40.3075 46.3533 40.3362 46.1243V41.1433C40.3362 41.0574 40.365 40.9429 40.4512 40.8856C40.5375 40.8284 40.6237 40.857 40.71 40.9143C41.8312 41.5727 43.01 42.0307 44.275 42.317C45.3675 42.6032 46.5175 42.7464 47.6675 42.7464C48.76 42.7464 49.5362 42.6032 50.0537 42.3456C50.5137 42.1452 50.83 41.6586 50.83 41.1433C50.83 40.7425 50.6 40.3704 50.14 39.9982C49.68 39.6261 48.7312 39.1967 47.3225 38.6528C45.8562 38.1375 44.505 37.4504 43.24 36.5916C42.3487 35.9619 41.6012 35.1317 41.055 34.1584C40.595 33.2423 40.365 32.2404 40.3937 31.2385C40.3937 30.0075 40.7387 28.8338 41.3712 27.7747C42.09 26.6296 43.1537 25.7135 44.39 25.141C45.7412 24.454 47.4375 24.1391 49.4787 24.1391C50.6575 24.1391 51.865 24.225 53.0437 24.3967C53.9062 24.5112 54.74 24.7402 55.5162 25.0551C55.6312 25.0837 55.7462 25.1983 55.8037 25.3128C55.8325 25.4273 55.8612 25.5418 55.8612 25.6563V30.3224C55.8612 30.4369 55.8037 30.5514 55.7175 30.6087C55.4587 30.6659 55.315 30.6659 55.2 30.6087Z" fill="#E76D8A"/>
</g>
<defs>
<clipPath id="clip0_38_2">
<rect width="69" height="67" fill="white"/>
</clipPath>
</defs>
</svg>
