<svg width="69" height="67" viewBox="0 0 69 67" fill="none" xmlns="http://www.w3.org/2000/svg">
<g clip-path="url(#clip0_34_2)">
<path d="M12.2188 0.00689697H56.7812C63.5375 0.00689697 69 5.44595 69 12.1732V54.8268C69 61.5541 63.5375 66.9932 56.7812 66.9932H12.2188C5.4625 66.9932 0 61.5541 0 54.8268V12.1732C0 5.44595 5.4625 0.00689697 12.2188 0.00689697Z" fill="#6F4367"/>
<path d="M57.6979 34.2471H55.5865V32.1536H53.4747V34.2471H51.3635V36.3401H53.4747V38.4332H55.5865V36.3401H57.6979V34.2471ZM49.9935 34.2471H47.8823V32.1536H45.7709V34.2471H43.6595V36.3401H45.7709V38.4332H47.8823V36.3401H49.9935V34.2471Z" fill="#E76D8A"/>
<path d="M39.4313 30.812C37.8571 28.0445 34.866 26.1742 31.433 26.1742C28.0211 26.1742 25.0469 28.0211 23.4647 30.7593C22.6699 32.1332 22.2525 33.6898 22.2542 35.2737C22.2542 40.299 26.3639 44.3729 31.433 44.3729C34.823 44.3729 37.7816 42.5491 39.3715 39.8389L47.3943 44.4188C44.2055 49.8758 38.252 53.5471 31.433 53.5471C21.2526 53.5471 13 45.3657 13 35.2737C13 31.9628 13.8885 28.858 15.4413 26.1798C18.6221 20.694 24.5925 17.0001 31.433 17.0001C38.2861 17.0001 44.2659 20.7088 47.4421 26.2108L39.4313 30.812Z" fill="#E76D8A"/>
</g>
<defs>
<clipPath id="clip0_34_2">
<rect width="69" height="66.9863" fill="white" transform="matrix(1 0 0 -1 0 66.9932)"/>
</clipPath>
</defs>
</svg>
