<svg width="69" height="67" viewBox="0 0 69 67" fill="none" xmlns="http://www.w3.org/2000/svg">
<g clip-path="url(#clip0_29_55)">
<path d="M12.2188 0.00701904H56.7812C63.5375 0.00701904 69 5.44607 69 12.1733V54.827C69 61.5542 63.5375 66.9933 56.7812 66.9933H12.2188C5.4625 66.9933 0 61.5542 0 54.827V12.1733C0 5.44607 5.4625 0.00701904 12.2188 0.00701904Z" fill="#6F4367"/>
<path d="M35.3334 34.5C35.3334 32.5992 36.0884 30.7764 37.4325 29.4324C38.7765 28.0884 40.5993 27.3333 42.5 27.3333C44.4008 27.3333 46.2236 28.0884 47.5676 29.4324C48.9116 30.7764 49.6667 32.5992 49.6667 34.5C49.6667 36.4007 48.9116 38.2235 47.5676 39.5676C46.2236 40.9116 44.4008 41.6666 42.5 41.6666C40.5993 41.6666 38.7765 40.9116 37.4325 39.5676C36.0884 38.2235 35.3334 36.4007 35.3334 34.5Z" fill="#E76D8A"/>
<path d="M21 48.8333C21 46.9326 21.7551 45.1098 23.0991 43.7658C24.4431 42.4218 26.2659 41.6667 28.1667 41.6667H35.3333V48.8333C35.3333 50.7341 34.5783 52.5569 33.2342 53.9009C31.8902 55.2449 30.0674 56 28.1667 56C26.2659 56 24.4431 55.2449 23.0991 53.9009C21.7551 52.5569 21 50.7341 21 48.8333Z" fill="#E76D8A"/>
<path d="M35.3334 13V27.3333H42.5C44.4008 27.3333 46.2236 26.5783 47.5676 25.2342C48.9116 23.8902 49.6667 22.0674 49.6667 20.1667C49.6667 18.2659 48.9116 16.4431 47.5676 15.0991C46.2236 13.7551 44.4008 13 42.5 13H35.3334Z" fill="#E76D8A"/>
<path d="M21 20.1667C21 22.0674 21.7551 23.8902 23.0991 25.2342C24.4431 26.5783 26.2659 27.3333 28.1667 27.3333H35.3333V13H28.1667C26.2659 13 24.4431 13.7551 23.0991 15.0991C21.7551 16.4431 21 18.2659 21 20.1667Z" fill="#E76D8A"/>
<path d="M21 34.5C21 36.4007 21.7551 38.2235 23.0991 39.5676C24.4431 40.9116 26.2659 41.6666 28.1667 41.6666H35.3333V27.3333H28.1667C26.2659 27.3333 24.4431 28.0884 23.0991 29.4324C21.7551 30.7764 21 32.5992 21 34.5Z" fill="#E76D8A"/>
</g>
<defs>
<clipPath id="clip0_29_55">
<rect width="69" height="66.9863" fill="white" transform="translate(0 0.00701904)"/>
</clipPath>
</defs>
</svg>
