<svg width="69" height="67" viewBox="0 0 69 67" fill="none" xmlns="http://www.w3.org/2000/svg">
<g clip-path="url(#clip0_29_22)">
<path d="M12.2188 0.00701904H56.7812C63.5375 0.00701904 69 5.44607 69 12.1733V54.827C69 61.5542 63.5375 66.9933 56.7812 66.9933H12.2188C5.4625 66.9933 0 61.5542 0 54.827V12.1733C0 5.44607 5.4625 0.00701904 12.2188 0.00701904Z" fill="#6F4367"/>
<path d="M34.4567 13C23.4835 13 24.1687 17.7586 24.1687 17.7586L24.181 22.6885H34.6524V24.1687H20.0218C20.0218 24.1687 13 23.3724 13 34.4445C13 45.5165 19.1287 45.1239 19.1287 45.1239H22.7864V39.986C22.7864 39.986 22.5893 33.8573 28.8173 33.8573H39.2031C39.2031 33.8573 45.0383 33.9516 45.0383 28.2179V18.7373C45.0383 18.7373 45.9242 13 34.4567 13ZM28.6827 16.3151C29.7246 16.3151 30.5666 17.1572 30.5666 18.199C30.5666 19.2409 29.7246 20.0829 28.6827 20.0829C27.6409 20.0829 26.7988 19.2409 26.7988 18.199C26.7988 17.1572 27.6409 16.3151 28.6827 16.3151Z" fill="#E76D8A"/>
<path d="M34.7683 56C45.7415 56 45.0563 51.2414 45.0563 51.2414L45.0441 46.3115H34.5726V44.8313H49.2033C49.2033 44.8313 56.225 45.6276 56.225 34.5555C56.225 23.4835 50.0963 23.8761 50.0963 23.8761H46.4386V29.014C46.4386 29.014 46.6358 35.1427 40.4077 35.1427H30.0219C30.0219 35.1427 24.1868 35.0484 24.1868 40.7821V50.2627C24.1868 50.2627 23.3008 56 34.7683 56ZM40.5423 52.6849C39.5005 52.6849 38.6584 51.8428 38.6584 50.801C38.6584 49.7591 39.5005 48.9171 40.5423 48.9171C41.5841 48.9171 42.4262 49.7591 42.4262 50.801C42.4262 51.8428 41.5841 52.6849 40.5423 52.6849Z" fill="#E76D8A"/>
</g>
<defs>
<clipPath id="clip0_29_22">
<rect width="69" height="66.9863" fill="white" transform="translate(0 0.00701904)"/>
</clipPath>
</defs>
</svg>
