<svg width="69" height="67" viewBox="0 0 69 67" fill="none" xmlns="http://www.w3.org/2000/svg">
<g clip-path="url(#clip0_29_26)">
<path d="M12.2188 0.00701904H56.7812C63.5375 0.00701904 69 5.44607 69 12.1733V54.827C69 61.5542 63.5375 66.9933 56.7812 66.9933H12.2188C5.4625 66.9933 0 61.5542 0 54.827V12.1733C0 5.44607 5.4625 0.00701904 12.2188 0.00701904Z" fill="#6F4367"/>
<path d="M59 34.4669C59 37.6613 55.0179 40.6887 48.9128 42.5661C50.3216 48.8174 49.6955 53.791 46.9364 55.3833C46.3004 55.7568 45.5569 55.9337 44.7448 55.9337V53.7418C45.1949 53.7418 45.5569 53.6534 45.8602 53.4863C47.1908 52.7196 47.768 49.8003 47.318 46.0456C47.2104 45.1216 47.0342 44.1486 46.819 43.1558C44.9013 43.6276 42.8076 43.9913 40.6062 44.2272C39.2854 46.0456 37.9156 47.6969 36.5361 49.1418C39.7256 52.12 42.7195 53.7516 44.7546 53.7516V55.9435C42.064 55.9435 38.5418 54.017 34.9804 50.6751C31.4191 53.9974 27.8969 55.9042 25.2063 55.9042V53.7123C27.2316 53.7123 30.2352 52.0905 33.4248 49.1319C32.055 47.6871 30.6853 46.0456 29.384 44.2272C27.1729 43.9913 25.0791 43.6276 23.1614 43.146C22.9364 44.1289 22.7701 45.0823 22.6527 45.9964C22.1928 49.7512 22.7603 52.6704 24.0811 53.4469C24.3746 53.6239 24.7562 53.7025 25.2063 53.7025V55.8944C24.3844 55.8944 23.6408 55.7175 22.9951 55.344C20.2458 53.7516 19.6294 48.7879 21.0481 42.5562C14.9625 40.669 11 37.6515 11 34.4669C11 31.2724 14.9821 28.245 21.0872 26.3676C19.6784 20.1163 20.3045 15.1427 23.0636 13.5504C23.6996 13.1769 24.4431 13 25.265 13C27.9556 13 31.4778 14.9265 35.0391 18.2684C38.6005 14.9462 42.1227 13.0393 44.8133 13.0393C45.6351 13.0393 46.3787 13.2162 47.0245 13.5897C49.7738 15.1821 50.3901 20.1458 48.9715 26.3775C55.0375 28.2548 59 31.2822 59 34.4669ZM46.2613 41.0229C45.8993 39.7549 45.4492 38.4477 44.9405 37.1404C44.5393 37.9267 44.1186 38.713 43.6588 39.4994C43.2087 40.2857 42.7293 41.0524 42.2499 41.7994C43.6392 41.593 44.9796 41.3374 46.2613 41.0229ZM41.7803 30.5549C41.0171 29.2279 40.2344 27.9698 39.4223 26.8001C37.9645 26.6723 36.4872 26.6035 35 26.6035C33.5226 26.6035 32.0453 26.6723 30.5972 26.7903C29.7852 27.96 28.9927 29.2083 28.2295 30.5254C27.4859 31.813 26.8108 33.1203 26.1945 34.4374C26.8011 35.7545 27.4859 37.0716 28.2197 38.3592C28.9829 39.6861 29.7656 40.9443 30.5777 42.1139C32.0355 42.2417 33.5128 42.3105 35 42.3105C36.4774 42.3105 37.9548 42.2417 39.4028 42.1238C40.2148 40.9541 41.0073 39.7058 41.7705 38.3887C42.5141 37.1011 43.1892 35.7938 43.8055 34.4767C43.1892 33.1596 42.5141 31.8425 41.7803 30.5549ZM44.9405 31.8326C45.4688 30.5155 45.9189 29.1984 46.2907 27.9206C45.009 27.6061 43.6588 27.3407 42.2597 27.1343C42.7391 27.8912 43.2185 28.6677 43.6686 29.4638C44.1186 30.2501 44.5393 31.0463 44.9405 31.8326ZM35.0196 21.3449C34.1097 22.2885 33.1998 23.3403 32.2996 24.4903C33.1802 24.451 34.0803 24.4215 34.9902 24.4215C35.9099 24.4215 36.8198 24.4411 37.7102 24.4903C36.8296 23.3403 35.9197 22.2885 35.0196 21.3449ZM27.7403 27.1343C26.351 27.3407 25.0106 27.5963 23.7289 27.9108C24.0909 29.1788 24.541 30.486 25.0497 31.7933C25.4509 31.007 25.8716 30.2207 26.3314 29.4343C26.7913 28.648 27.2609 27.8813 27.7403 27.1343ZM34.9707 47.5888C35.8806 46.6452 36.7905 45.5934 37.6906 44.4434C36.81 44.4828 35.9099 44.5122 35 44.5122C34.0803 44.5122 33.1704 44.4926 32.2801 44.4434C33.1606 45.5934 34.0705 46.6452 34.9707 47.5888ZM27.7305 41.7994C27.2511 41.0426 26.7717 40.266 26.3216 39.4699C25.8716 38.6836 25.4509 37.8972 25.0497 37.1109C24.5214 38.428 24.0713 39.7451 23.6996 41.0229C24.9812 41.3276 26.3314 41.593 27.7305 41.7994ZM18.8761 29.4933C15.4126 30.9775 13.172 32.9237 13.172 34.4669C13.172 36.01 15.4126 37.966 18.8761 39.4404C19.7175 39.8041 20.6372 40.1284 21.5862 40.4331C22.1439 38.5066 22.8777 36.5015 23.7876 34.4472C22.8875 32.4027 22.1635 30.4074 21.6156 28.4907C20.647 28.7954 19.7273 29.1296 18.8761 29.4933ZM24.1398 15.4474C22.8092 16.2141 22.232 19.1334 22.682 22.8881C22.7896 23.8121 22.9658 24.7851 23.181 25.7779C25.0987 25.3061 27.1924 24.9424 29.3938 24.7065C30.7146 22.8881 32.0844 21.2368 33.4639 19.7919C30.2744 16.8137 27.2805 15.1821 25.2454 15.1821C24.8051 15.1919 24.4333 15.2804 24.1398 15.4474ZM47.3473 22.9373C47.8072 19.1825 47.2397 16.2633 45.9189 15.4868C45.6254 15.3098 45.2438 15.2312 44.7937 15.2312C42.7684 15.2312 39.7648 16.853 36.5752 19.8116C37.945 21.2565 39.3147 22.8979 40.616 24.7163C42.8272 24.9522 44.9209 25.3159 46.8386 25.7975C47.0636 24.8048 47.2397 23.8514 47.3473 22.9373ZM51.1141 29.4933C50.2727 29.1296 49.353 28.8053 48.404 28.5006C47.8463 30.4271 47.1125 32.4322 46.2026 34.4865C47.1027 36.531 47.8267 38.5263 48.3746 40.443C49.3433 40.1383 50.2629 39.8041 51.1239 39.4404C54.5874 37.9562 56.828 36.01 56.828 34.4669C56.8182 32.9237 54.5777 30.9677 51.1141 29.4933Z" fill="#E76D8A"/>
<path d="M34.9902 29.975C37.4596 29.975 39.4615 31.9861 39.4615 34.4669C39.4615 36.9477 37.4596 38.9588 34.9902 38.9588C32.5208 38.9588 30.519 36.9477 30.519 34.4669C30.519 31.9861 32.5208 29.975 34.9902 29.975Z" fill="#E76D8A"/>
</g>
<defs>
<clipPath id="clip0_29_26">
<rect width="69" height="66.9863" fill="white" transform="matrix(1 0 0 -1 0 66.9933)"/>
</clipPath>
</defs>
</svg>
