<svg width="69" height="67" viewBox="0 0 69 67" fill="none" xmlns="http://www.w3.org/2000/svg">
<g clip-path="url(#clip0_39_27)">
<path d="M12.2188 0.00689697H56.7812C63.5375 0.00689697 69 5.44595 69 12.1732V54.8268C69 61.5541 63.5375 66.9932 56.7812 66.9932H12.2188C5.4625 66.9932 0 61.5541 0 54.8268V12.1732C0 5.44595 5.4625 0.00689697 12.2188 0.00689697Z" fill="#6F4367"/>
<path d="M38.0357 34.9987L45.749 48.2949L49.476 34.9987L45.7488 21.7056L38.0357 34.9987ZM34.2764 32.8394L41.9906 19.5454L28.5558 22.9813L18.85 32.8394H34.2764ZM41.989 50.4558L34.2764 37.1596H18.85L28.5558 47.0183L41.989 50.4558ZM53 39.5236L48.2944 57L30.7309 52.3163L28.131 47.7531L22.8554 47.7909L10 34.9975L22.8554 22.2071H22.8559L28.1294 22.246L30.733 17.6828L48.2944 13L52.9998 30.473L50.3275 34.9985L52.9998 39.5233L53 39.5236Z" fill="#E76D8A"/>
</g>
<defs>
<clipPath id="clip0_39_27">
<rect width="69" height="66.9863" fill="white" transform="translate(0 0.00689697)"/>
</clipPath>
</defs>
</svg>
